<svg xmlns="http://www.w3.org/2000/svg" xmlns:xlink="http://www.w3.org/1999/xlink" viewBox="0 0 456.02 285.75"><defs><style>.cls-1{fill:#1f1f1f;}.cls-2{fill:url(#linear-gradient);}</style><linearGradient id="linear-gradient" x1="178.85" y1="143.42" x2="330.16" y2="143.42" gradientUnits="userSpaceOnUse"><stop offset="0" stop-color="#1f1f1f"/><stop offset="0.13" stop-color="#23211f"/><stop offset="0.27" stop-color="#2f2620"/><stop offset="0.41" stop-color="#442f21"/><stop offset="0.55" stop-color="#613b23"/><stop offset="0.69" stop-color="#864a25"/><stop offset="0.83" stop-color="#b35e28"/><stop offset="0.97" stop-color="#e8742b"/><stop offset="1" stop-color="#f4792c"/></linearGradient></defs><title>Asset 6</title><g id="Layer_2" data-name="Layer 2"><g id="Layer_1-2" data-name="Layer 1"><path class="cls-1" d="M129.49,77.18H169v1l-9.37,12V209.76H78.56V159.29l26.53,9.37v18.18c.13.74.47,1.11,1,1.11H129l1-.55q-.56-9.65-.56-14Z"/><path class="cls-2" d="M178.85,76.9h39.61V87.29H219q20.22-10.38,22.45-10.39h28.67v9.93h.56Q290.37,76.9,292,76.9h28.76V195.38q0,2,9.37,13.54v1h-39.7v-1q0-34.32.55-101.77h-.55q-20.13,9.64-20.32,10.48V175q0,8.07-.56,21.89,9.93,11.13,9.93,13.08H239.89V108.17l-.55-1q-20.42,9.93-20.88,10.95v78.76l9.47,12.06v1H188.22V90Q178.85,78.29,178.85,76.9Z"/><polygon class="cls-1" points="372.03 259.72 379.77 262.63 397.33 262.63 389.57 259.72 372.03 259.72"/><path class="cls-1" d="M357.32,258.71h52.26a7.27,7.27,0,0,0,1.23-1.35H353.89A5.29,5.29,0,0,0,357.32,258.71Z"/><path class="cls-1" d="M411.05,253.17h-65a4,4,0,0,0-.51-.56H456a12.92,12.92,0,0,0-3.08-3.17H409.27l6-1.9c0-1.61-2.28-2.91-5.11-2.91H334.7a8.08,8.08,0,0,0-2.7.45H193.41l-11.39.17H72a35,35,0,0,1-31.41-34.82c0-.05,0-.09,0-.14H40.5V40.5h288a35,35,0,0,1,31.32,33.27V104a17,17,0,0,0,3.24-2.94v11.14l-1.65-4.4V125.4l1.45,3.85v10l.41,1.09v5.44h.07v11.81a7.46,7.46,0,0,0,1.05-.62v60.47l5.46,12.69v-86.5c0-.06,0-.12,0-.17a3,3,0,0,0,.34-1.39v-43L372,94.94V92.15l2.73-6.34V223.72c0,3.62,3.08,6.86,8,9.11v-1.48l15.07-35V167.12c1.64-1.1,2.81-3.87,2.81-7.14V73.42c.06-1.14.09-2.27.09-3.42s0-2.28-.09-3.42A70,70,0,0,0,330.65,0H0V215.75a70,70,0,0,0,70,70H229.73c4.21,0,7.64-1.95,7.64-4.35l16.35-5.19,11.16-3.54c0-.13,0-.25,0-.37H303.8l1-.38H327c3.53,0,6.38-1.64,6.38-3.64l14.46-4.6h2.38l1.3-.49,2.89-1.09h8.79l-.49.18h1.06c-1-2.08-2.36-3.41-3.9-3.41h-4.68a8.6,8.6,0,0,0-5.21-1.52H324.44l-4.05,1.28h-4.81l2,.87-2.13.68a1.5,1.5,0,0,1,0,.37h-.88l.79.34c-.41,1.19-1.86,2.18-3.78,2.64h-15.8l-.76.29H282.51a6.84,6.84,0,0,0,.73-.7h1.58l-1.07-.4h-.15a10.52,10.52,0,0,0,.86-1.22l-3.11-1.15h-10.6l11.93-4.49h1.51l2.38,1h15.84l-.06.07h142.5a7.32,7.32,0,0,0,4.76-1.88H415.82A7.29,7.29,0,0,0,411.05,253.17Z"/></g></g></svg>